<?xml version="1.0" encoding="UTF-8"?>
<!DOCTYPE svg PUBLIC "-//W3C//DTD SVG 1.1//EN" "http://www.w3.org/Graphics/SVG/1.1/DTD/svg11.dtd">
<svg xmlns="http://www.w3.org/2000/svg" version="1.1" width="288px" height="288px" style="shape-rendering:geometricPrecision; text-rendering:geometricPrecision; image-rendering:optimizeQuality; fill-rule:evenodd; clip-rule:evenodd" xmlns:xlink="http://www.w3.org/1999/xlink">
<g><path style="opacity:1" fill="#010000" d="M -0.5,-0.5 C 95.5,-0.5 191.5,-0.5 287.5,-0.5C 287.5,95.5 287.5,191.5 287.5,287.5C 191.5,287.5 95.5,287.5 -0.5,287.5C -0.5,191.5 -0.5,95.5 -0.5,-0.5 Z"/></g>
<g><path style="opacity:1" fill="#397395" d="M 169.5,43.5 C 178.167,43.5 186.833,43.5 195.5,43.5C 195.5,52.1667 195.5,60.8333 195.5,69.5C 187.16,69.6664 178.827,69.4997 170.5,69C 169.517,60.5851 169.183,52.0851 169.5,43.5 Z"/></g>
<g><path style="opacity:1" fill="#9d521c" d="M 144.5,116.5 C 144.167,116.5 143.833,116.5 143.5,116.5C 143.5,92.8333 143.5,69.1667 143.5,45.5C 127.991,45.1705 112.658,45.5038 97.5,46.5C 96.346,52.987 96.1794,59.6536 97,66.5C 104.599,67.1518 112.099,67.8185 119.5,68.5C 111.316,68.8257 103.316,68.4924 95.5,67.5C 95.5,59.8333 95.5,52.1667 95.5,44.5C 111.833,44.5 128.167,44.5 144.5,44.5C 144.5,68.5 144.5,92.5 144.5,116.5 Z"/></g>
<g><path style="opacity:1" fill="#53b7e7" d="M 193.5,67.5 C 192.829,61.3237 191.829,55.157 190.5,49C 190.833,48.5 191.167,48 191.5,47.5C 192.308,49.4233 192.808,51.4233 193,53.5C 193.497,50.854 193.664,48.1873 193.5,45.5C 186.468,45.1697 179.468,45.503 172.5,46.5C 170.798,50.6766 171.465,54.3432 174.5,57.5C 172.02,60.3609 171.02,63.6942 171.5,67.5C 170.508,60.0182 170.175,52.3516 170.5,44.5C 178.5,44.5 186.5,44.5 194.5,44.5C 194.825,52.3516 194.492,60.0182 193.5,67.5 Z"/></g>
<g><path style="opacity:1" fill="#ae4f03" d="M 143.5,116.5 C 127.675,117.496 111.675,117.83 95.5,117.5C 95.5,116.5 95.5,115.5 95.5,114.5C 97.0591,109.064 98.0591,103.397 98.5,97.5C 99.0253,96.8076 99.6919,96.3076 100.5,96C 107.524,95.8311 114.524,95.3311 121.5,94.5C 122.823,85.3034 122.823,76.1367 121.5,67C 114.144,66.8313 106.811,66.3313 99.5,65.5C 98.7919,59.1695 98.1252,52.8362 97.5,46.5C 112.658,45.5038 127.991,45.1705 143.5,45.5C 143.5,69.1667 143.5,92.8333 143.5,116.5 Z"/></g>
<g><path style="opacity:1" fill="#ae4f02" d="M 68.5,193.5 C 68.8333,193.5 69.1667,193.5 69.5,193.5C 77.6394,194.831 86.1394,195.498 95,195.5C 103.861,195.498 112.361,194.831 120.5,193.5C 121.657,185.344 121.823,177.01 121,168.5C 112.585,167.517 104.085,167.183 95.5,167.5C 95.5,160.167 95.5,152.833 95.5,145.5C 111.5,145.5 127.5,145.5 143.5,145.5C 143.17,161.675 143.504,177.675 144.5,193.5C 148.445,194.825 152.778,195.492 157.5,195.5C 162.222,195.492 166.555,194.825 170.5,193.5C 171.167,178.5 171.833,163.5 172.5,148.5C 173.931,148.881 174.764,149.881 175,151.5C 175.75,150.874 176.584,150.374 177.5,150C 175.519,149.395 175.185,148.395 176.5,147C 181.77,146.639 186.937,147.139 192,148.5C 192.5,171.498 192.667,194.498 192.5,217.5C 149.5,217.5 106.5,217.5 63.5,217.5C 57.9066,217.807 52.4066,217.473 47,216.5C 46.5,159.501 46.3333,102.501 46.5,45.5C 53.5,45.5 60.5,45.5 67.5,45.5C 67.1678,95.0028 67.5011,144.336 68.5,193.5 Z"/></g>
<g><path style="opacity:1" fill="#110101" d="M 95.5,119.5 C 112.167,119.5 128.833,119.5 145.5,119.5C 145.5,118.5 145.5,117.5 145.5,116.5C 145.667,92.1644 145.5,67.8311 145,43.5C 128.244,42.5082 111.411,42.1749 94.5,42.5C 110.731,42.1506 126.898,41.1506 143,39.5C 144,42.1667 145,42.1667 146,39.5C 146.147,42.1104 146.981,44.4437 148.5,46.5C 147.395,70.4808 147.229,94.4808 148,118.5C 146.981,119.687 145.814,120.687 144.5,121.5C 128.039,120.847 111.706,120.18 95.5,119.5 Z"/></g>
<g><path style="opacity:1" fill="#41b8f7" d="M 193.5,67.5 C 186.167,67.5 178.833,67.5 171.5,67.5C 171.02,63.6942 172.02,60.3609 174.5,57.5C 171.465,54.3432 170.798,50.6766 172.5,46.5C 179.468,45.503 186.468,45.1697 193.5,45.5C 193.664,48.1873 193.497,50.854 193,53.5C 192.808,51.4233 192.308,49.4233 191.5,47.5C 191.167,48 190.833,48.5 190.5,49C 191.829,55.157 192.829,61.3237 193.5,67.5 Z"/></g>
<g><path style="opacity:1" fill="#713f1d" d="M 70.5,193.5 C 70.1667,193.5 69.8333,193.5 69.5,193.5C 69.1667,193.5 68.8333,193.5 68.5,193.5C 68.5,143.833 68.5,94.1667 68.5,44.5C 60.8333,44.5 53.1667,44.5 45.5,44.5C 45.1676,102.669 45.501,160.669 46.5,218.5C 46.5,218.833 46.5,219.167 46.5,219.5C 44.5039,160.843 43.8372,101.843 44.5,42.5C 53.0851,42.1834 61.5851,42.5168 70,43.5C 70.5,93.4989 70.6667,143.499 70.5,193.5 Z"/></g>
<g><path style="opacity:1" fill="#3e190b" d="M 94.5,67.5 C 94.8333,67.5 95.1667,67.5 95.5,67.5C 103.316,68.4924 111.316,68.8257 119.5,68.5C 119.5,68.8333 119.5,69.1667 119.5,69.5C 110.766,70.135 102.433,69.4684 94.5,67.5 Z"/></g>
<g><path style="opacity:1" fill="#a15112" d="M 68.5,193.5 C 67.5011,144.336 67.1678,95.0028 67.5,45.5C 60.5,45.5 53.5,45.5 46.5,45.5C 46.3333,102.501 46.5,159.501 47,216.5C 52.4066,217.473 57.9066,217.807 63.5,217.5C 63.5,217.833 63.5,218.167 63.5,218.5C 57.8333,218.5 52.1667,218.5 46.5,218.5C 45.501,160.669 45.1676,102.669 45.5,44.5C 53.1667,44.5 60.8333,44.5 68.5,44.5C 68.5,94.1667 68.5,143.833 68.5,193.5 Z"/></g>
<g><path style="opacity:1" fill="#834a1f" d="M 119.5,68.5 C 120.117,68.6107 120.617,68.944 121,69.5C 121.167,73.3333 121.333,77.1667 121.5,81C 121.49,85.229 120.823,89.0623 119.5,92.5C 119.5,84.8333 119.5,77.1667 119.5,69.5C 119.5,69.1667 119.5,68.8333 119.5,68.5 Z"/></g>
<g><path style="opacity:1" fill="#673416" d="M 94.5,42.5 C 111.411,42.1749 128.244,42.5082 145,43.5C 145.5,67.8311 145.667,92.1644 145.5,116.5C 145.167,116.5 144.833,116.5 144.5,116.5C 144.5,92.5 144.5,68.5 144.5,44.5C 128.167,44.5 111.833,44.5 95.5,44.5C 95.5,52.1667 95.5,59.8333 95.5,67.5C 95.1667,67.5 94.8333,67.5 94.5,67.5C 94.5,59.1667 94.5,50.8333 94.5,42.5 Z"/></g>
<g><path style="opacity:1" fill="#663617" d="M 220.5,42.5 C 229.085,42.1834 237.585,42.5168 246,43.5C 246.667,102.167 246.667,160.833 246,219.5C 237.585,220.483 229.085,220.817 220.5,220.5C 220.5,161.167 220.5,101.833 220.5,42.5 Z"/></g>
<g><path style="opacity:1" fill="#a1561c" d="M 221.5,44.5 C 229.5,44.5 237.5,44.5 245.5,44.5C 245.5,102.5 245.5,160.5 245.5,218.5C 237.5,218.5 229.5,218.5 221.5,218.5C 221.5,160.5 221.5,102.5 221.5,44.5 Z"/></g>
<g><path style="opacity:1" fill="#ac4f06" d="M 223.5,215.5 C 222.501,159.002 222.168,102.336 222.5,45.5C 229.833,45.5 237.167,45.5 244.5,45.5C 244.667,102.168 244.5,158.834 244,215.5C 240.767,216.786 237.267,217.453 233.5,217.5C 229.761,217.486 226.428,216.82 223.5,215.5 Z"/></g>
<g><path style="opacity:1" fill="#af4f02" d="M 223.5,215.5 C 223.167,164.829 223.5,114.162 224.5,63.5C 225.478,63.0233 226.311,62.3567 227,61.5C 228.99,56.7262 228.824,52.0595 226.5,47.5C 231.05,46.1999 235.55,46.1999 240,47.5C 240.667,103.5 240.667,159.5 240,215.5C 234.578,216.228 229.078,216.228 223.5,215.5 Z"/></g>
<g><path style="opacity:1" fill="#a25311" d="M 97.5,46.5 C 98.1252,52.8362 98.7919,59.1695 99.5,65.5C 106.811,66.3313 114.144,66.8313 121.5,67C 122.823,76.1367 122.823,85.3034 121.5,94.5C 114.524,95.3311 107.524,95.8311 100.5,96C 99.6919,96.3076 99.0253,96.8076 98.5,97.5C 98.0591,103.397 97.0591,109.064 95.5,114.5C 95.5,107.833 95.5,101.167 95.5,94.5C 103.684,94.8257 111.684,94.4924 119.5,93.5C 119.5,93.1667 119.5,92.8333 119.5,92.5C 120.823,89.0623 121.49,85.229 121.5,81C 121.333,77.1667 121.167,73.3333 121,69.5C 120.617,68.944 120.117,68.6107 119.5,68.5C 112.099,67.8185 104.599,67.1518 97,66.5C 96.1794,59.6536 96.346,52.987 97.5,46.5 Z"/></g>
<g><path style="opacity:1" fill="#3f7293" d="M 170.5,118.5 C 169.507,110.35 169.174,102.017 169.5,93.5C 178.167,93.5 186.833,93.5 195.5,93.5C 195.5,102.167 195.5,110.833 195.5,119.5C 186.983,119.826 178.65,119.493 170.5,118.5 Z"/></g>
<g><path style="opacity:1" fill="#42b8f6" d="M 191.5,94.5 C 192.091,95.1515 192.757,95.8182 193.5,96.5C 192.704,103.117 192.204,109.783 192,116.5C 188.919,117.146 185.752,117.479 182.5,117.5C 178.278,117.718 174.278,117.051 170.5,115.5C 170.5,108.5 170.5,101.5 170.5,94.5C 177.5,94.5 184.5,94.5 191.5,94.5 Z"/></g>
<g><path style="opacity:1" fill="#54b1dc" d="M 191.5,94.5 C 192.5,94.5 193.5,94.5 194.5,94.5C 194.5,102.5 194.5,110.5 194.5,118.5C 186.5,118.5 178.5,118.5 170.5,118.5C 170.5,117.5 170.5,116.5 170.5,115.5C 174.278,117.051 178.278,117.718 182.5,117.5C 185.752,117.479 188.919,117.146 192,116.5C 192.204,109.783 192.704,103.117 193.5,96.5C 192.757,95.8182 192.091,95.1515 191.5,94.5 Z"/></g>
<g><path style="opacity:1" fill="#864a1e" d="M 119.5,93.5 C 111.684,94.4924 103.684,94.8257 95.5,94.5C 95.5,101.167 95.5,107.833 95.5,114.5C 95.5,115.5 95.5,116.5 95.5,117.5C 111.675,117.83 127.675,117.496 143.5,116.5C 143.833,116.5 144.167,116.5 144.5,116.5C 128.2,118.485 111.534,119.152 94.5,118.5C 94.5,110.167 94.5,101.833 94.5,93.5C 102.833,93.5 111.167,93.5 119.5,93.5 Z"/></g>
<g><path style="opacity:1" fill="#522811" d="M 144.5,116.5 C 144.833,116.5 145.167,116.5 145.5,116.5C 145.5,117.5 145.5,118.5 145.5,119.5C 128.833,119.5 112.167,119.5 95.5,119.5C 94.8333,119.5 94.5,119.167 94.5,118.5C 111.534,119.152 128.2,118.485 144.5,116.5 Z"/></g>
<g><path style="opacity:1" fill="#a0551e" d="M 95.5,145.5 C 95.5,145.167 95.5,144.833 95.5,144.5C 111.833,144.5 128.167,144.5 144.5,144.5C 144.5,160.833 144.5,177.167 144.5,193.5C 143.504,177.675 143.17,161.675 143.5,145.5C 127.5,145.5 111.5,145.5 95.5,145.5 Z"/></g>
<g><path style="opacity:1" fill="#9e5621" d="M 170.5,144.5 C 178.5,144.5 186.5,144.5 194.5,144.5C 194.831,169.339 194.498,194.006 193.5,218.5C 193.5,194.167 193.5,169.833 193.5,145.5C 186.5,145.5 179.5,145.5 172.5,145.5C 172.5,146.5 172.5,147.5 172.5,148.5C 171.833,163.5 171.167,178.5 170.5,193.5C 170.5,177.167 170.5,160.833 170.5,144.5 Z"/></g>
<g><path style="opacity:1" fill="#85481b" d="M 94.5,144.5 C 94.8333,144.5 95.1667,144.5 95.5,144.5C 95.5,144.833 95.5,145.167 95.5,145.5C 95.5,152.833 95.5,160.167 95.5,167.5C 104.085,167.183 112.585,167.517 121,168.5C 121.823,177.01 121.657,185.344 120.5,193.5C 120.826,185.316 120.492,177.316 119.5,169.5C 111.167,169.5 102.833,169.5 94.5,169.5C 94.5,161.167 94.5,152.833 94.5,144.5 Z"/></g>
<g><path style="opacity:1" fill="#5d2e14" d="M 94.5,144.5 C 111.325,143.503 128.325,143.17 145.5,143.5C 145.5,160.167 145.5,176.833 145.5,193.5C 153.5,193.5 161.5,193.5 169.5,193.5C 169.17,176.991 169.504,160.658 170.5,144.5C 170.5,160.833 170.5,177.167 170.5,193.5C 166.555,194.825 162.222,195.492 157.5,195.5C 152.778,195.492 148.445,194.825 144.5,193.5C 144.5,177.167 144.5,160.833 144.5,144.5C 128.167,144.5 111.833,144.5 95.5,144.5C 95.1667,144.5 94.8333,144.5 94.5,144.5 Z"/></g>
<g><path style="opacity:1" fill="#78421b" d="M 170.5,144.5 C 178.65,143.507 186.983,143.174 195.5,143.5C 195.5,168.833 195.5,194.167 195.5,219.5C 145.833,219.5 96.1667,219.5 46.5,219.5C 46.5,219.167 46.5,218.833 46.5,218.5C 52.1667,218.5 57.8333,218.5 63.5,218.5C 106.833,218.5 150.167,218.5 193.5,218.5C 194.498,194.006 194.831,169.339 194.5,144.5C 186.5,144.5 178.5,144.5 170.5,144.5 Z"/></g>
<g><path style="opacity:1" fill="#683412" d="M 119.5,169.5 C 120.492,177.316 120.826,185.316 120.5,193.5C 112.361,194.831 103.861,195.498 95,195.5C 86.1394,195.498 77.6394,194.831 69.5,193.5C 69.8333,193.5 70.1667,193.5 70.5,193.5C 86.8333,193.5 103.167,193.5 119.5,193.5C 119.5,185.5 119.5,177.5 119.5,169.5 Z"/></g>
<g><path style="opacity:1" fill="#a8500a" d="M 193.5,218.5 C 150.167,218.5 106.833,218.5 63.5,218.5C 63.5,218.167 63.5,217.833 63.5,217.5C 106.5,217.5 149.5,217.5 192.5,217.5C 192.667,194.498 192.5,171.498 192,148.5C 186.937,147.139 181.77,146.639 176.5,147C 175.185,148.395 175.519,149.395 177.5,150C 176.584,150.374 175.75,150.874 175,151.5C 174.764,149.881 173.931,148.881 172.5,148.5C 172.5,147.5 172.5,146.5 172.5,145.5C 179.5,145.5 186.5,145.5 193.5,145.5C 193.5,169.833 193.5,194.167 193.5,218.5 Z"/></g>
</svg>
